# xmcd
#
# Track frame offsets:
#	150
#	20719
#	37356
#	50818
#	72248
#	85492
#	103019
#	124369
#	139386
#	154158
#
# Disc length: 2267 seconds
#
# Revision: 1
# Processed by: cddbd v1.5.2PL0 Copyright (c) Steve Scherf et al.
# Submitted via: audiograbber 1.82.02
#
DISCID=9e08d90a
DTITLE=Jesse Winchester - Nothing But A Breeze
DYEAR=1977
DGENRE=Country
TTITLE0=Nothing But A Breeze
TTITLE1=My Songbird
TTITLE2=Seems Like Only Yesterday
TTITLE3=You Remember Me
TTITLE4=Twigs And Seeds
TTITLE5=Gilding The Lily
TTITLE6=Bowling Green
TTITLE7=Pourquoi M'aimes-Tu Pas?
TTITLE8=It Takes A Young Girl
TTITLE9=Rhumba Man
EXTD=
EXTT0=
EXTT1=
EXTT2=
EXTT3=
EXTT4=
EXTT5=
EXTT6=
EXTT7=
EXTT8=
EXTT9=
PLAYORDER=
